# xmcd
#
# Track frame offsets:
#	150
#	14472
#	25160
#	38237
#	53777
#
# Disc length: 912 seconds
#
# Revision: 0
# Processed by: cddbd v1.5.2PL0 Copyright (c) Steve Scherf et al.
# Submitted via: audiograbber 1.83.01
#
DISCID=36038e05
DTITLE=Longneck Strangler - My First Rodeo
DYEAR=2007
DGENRE=Country Rock
TTITLE0=Out Getting Drunk Over You
TTITLE1=Take Me Off This Mountain
TTITLE2=Choose You Over Booze
TTITLE3=Gone, Gone, Gone
TTITLE4=Midnight Rider
EXTD=
EXTT0=
EXTT1=
EXTT2=
EXTT3=
EXTT4=
PLAYORDER=
